<?xml version="1.0" standalone="no"?><!DOCTYPE svg PUBLIC "-//W3C//DTD SVG 1.1//EN" "http://www.w3.org/Graphics/SVG/1.1/DTD/svg11.dtd"><svg t="1729503495601" class="icon" viewBox="0 0 1024 1024" version="1.1" xmlns="http://www.w3.org/2000/svg" p-id="5528" xmlns:xlink="http://www.w3.org/1999/xlink" width="200" height="200"><path d="M637.568 934.528c-129.536 0-262.144-56.576-372.992-162.816C137.472 649.984 64.64 441.6 95.104 286.848c3.84-19.712 22.912-32.512 42.624-28.672 19.712 3.84 32.512 23.04 28.672 42.624-25.728 130.432 39.552 314.24 148.48 418.56 131.712 126.208 289.664 171.776 433.408 125.184 19.072-6.144 39.552 4.224 45.696 23.296 6.144 19.072-4.224 39.552-23.424 45.824-43.136 14.08-87.808 20.864-132.992 20.864" fill="#ffffff" p-id="5529"></path><path d="M620.288 737.28c-50.944 0-138.496-12.16-226.304-95.616-80-76.032-88.704-162.688-95.104-226.048-0.768-7.296-1.408-14.336-2.304-21.248-2.304-19.968 11.904-38.016 31.872-40.32 19.968-2.432 38.016 11.904 40.32 31.872 0.896 7.168 1.664 14.72 2.432 22.4 5.888 57.728 12.416 123.136 72.832 180.608 87.808 83.456 171.264 76.928 202.752 74.368 4.48-0.384 8.064-0.64 10.624-0.64h0.896c19.712 0 35.84 15.616 36.352 35.456 0.512 20.096-15.36 36.736-35.456 37.248-1.664 0-3.968 0.256-6.784 0.512-7.552 0.64-18.56 1.408-32.128 1.408" fill="#ffffff" p-id="5530"></path><path d="M339.328 421.76c-11.648 0-23.168-5.632-30.208-16-11.264-16.64-6.912-39.168 9.728-50.432 27.008-18.176 41.728-40.96 42.496-65.792 0.768-23.552-11.264-48.64-30.848-63.872-31.232-24.32-95.104-21.376-133.76 18.944-19.072 19.968-31.104 45.184-32.896 69.376-1.536 19.968-18.944 34.944-39.04 33.536-19.968-1.536-34.944-18.944-33.536-39.04 3.2-41.216 21.888-81.792 52.992-114.048 61.184-63.872 166.912-75.776 230.912-25.984 37.888 29.44 60.416 76.8 58.88 123.648-1.664 48.256-28.032 92.16-74.496 123.52-6.272 4.224-13.312 6.144-20.224 6.144M732.544 923.136c-17.28 0-32.64-12.416-35.712-29.952-3.456-19.712 9.728-38.656 29.44-42.112 21.376-3.84 55.424-23.68 74.24-43.392 40.832-42.624 34.176-93.056 10.624-121.984-15.36-18.816-35.968-28.288-56.448-25.856-23.808 2.816-45.44 21.248-59.392 50.56-8.704 18.176-30.336 25.856-48.512 17.152-18.048-8.576-25.728-30.336-17.152-48.384 24.832-52.224 67.328-85.504 116.224-91.392 45.696-5.504 89.984 13.44 121.472 51.968 51.84 63.488 45.824 155.264-14.464 218.112-29.696 30.976-77.696 58.24-114.048 64.64-2.048 0.512-4.224 0.64-6.272 0.64M899.2 570.624h-1.664c-20.096-0.896-35.584-17.92-34.688-38.016 3.84-84.224-42.752-183.552-121.728-259.2s-180.224-118.016-264.192-110.464c-20.096 1.664-37.632-12.928-39.424-33.024-1.664-19.84 13.056-37.504 33.024-39.296 105.856-9.344 225.792 39.296 320.896 130.432 95.104 91.136 148.992 208.896 144 315.008-0.768 19.456-16.896 34.56-36.224 34.56" fill="#ffffff" p-id="5531"></path><path d="M770.176 515.328c-19.584 0-35.712-15.616-36.352-35.328-1.152-39.168-27.392-87.936-68.48-127.36-41.216-39.424-91.008-63.744-130.176-62.976-20.096 0.768-36.608-15.744-36.864-35.84-0.256-20.096 15.744-36.608 35.84-36.864 58.24-0.896 126.336 30.208 181.504 83.2 55.296 52.992 89.216 119.424 90.88 177.792 0.512 20.096-15.232 36.736-35.328 37.376h-1.024" fill="#ffffff" p-id="5532"></path></svg>