<?xml version="1.0" standalone="no"?><!DOCTYPE svg PUBLIC "-//W3C//DTD SVG 1.1//EN" "http://www.w3.org/Graphics/SVG/1.1/DTD/svg11.dtd"><svg t="1738394947803" class="icon" viewBox="0 0 1024 1024" version="1.1" xmlns="http://www.w3.org/2000/svg" p-id="4177" xmlns:xlink="http://www.w3.org/1999/xlink" width="200" height="200"><path d="M768 170.666667c-48.355556 0-85.333333 36.977778-85.333333 85.333333s36.977778 85.333333 85.333333 85.333333 85.333333 39.822222 85.333333 85.333334v341.333333c0 45.511111-39.822222 85.333333-85.333333 85.333333H256c-48.355556 0-85.333333-39.822222-85.333333-85.333333V423.822222c0-45.511111 39.822222-85.333333 85.333333-85.333333 48.355556 0 85.333333-36.977778 85.333333-85.333333s-36.977778-85.333333-85.333333-85.333334c-139.377778 0-256 113.777778-256 256V768c0 142.222222 113.777778 256 256 256h512c139.377778 0 256-113.777778 256-256V423.822222C1024 284.444444 910.222222 170.666667 768 170.666667z" fill="#666666" p-id="4178"></path><path d="M287.288889 420.977778l-54.044445 54.044444c-11.377778 11.377778-11.377778 28.444444 0 39.822222l253.155556 253.155556c8.533333 8.533333 19.911111 11.377778 31.288889 5.688889 8.533333 2.844444 19.911111 0 28.444444-8.533333l253.155556-253.155556c11.377778-11.377778 11.377778-28.444444 0-39.822222l-54.044445-54.044445c-11.377778-11.377778-28.444444-11.377778-39.822222 0L597.333333 526.222222V28.444444c0-17.066667-11.377778-28.444444-28.444444-28.444444h-113.777778c-14.222222 0-28.444444 11.377778-28.444444 28.444444v489.244445l-99.555556-99.555556c-8.533333-8.533333-28.444444-8.533333-39.822222 2.844445z" fill="#666666" p-id="4179"></path></svg>