<?xml version="1.0" standalone="no"?><!DOCTYPE svg PUBLIC "-//W3C//DTD SVG 1.1//EN" "http://www.w3.org/Graphics/SVG/1.1/DTD/svg11.dtd"><svg t="1728044824082" class="icon" viewBox="0 0 1024 1024" version="1.1" xmlns="http://www.w3.org/2000/svg" p-id="9426" xmlns:xlink="http://www.w3.org/1999/xlink" width="200" height="200"><path d="M147.4 187.1l136.3 136.3 39-39.1 1.9-1.8-134.2-134.3h139.4V90.3H89.5V329h57.9z m175.1 552.4l-39.1-39.1-1.8-1.9-134.2 134.2V693.4H89.5v240.3h238.6v-57.9H186.2zM694.2 90.3v57.9h139.4L701.2 280.6l-1.8 1.9 39.1 39.1 1.8 1.7 136.3-136.2V329h57.9V90.3z m182.4 742.5L742.3 698.6l-39.1 39.1-1.7 1.8 136.2 136.3H695.8v57.9h238.7V693.4h-57.9zM512 291.1c-121.8 0-220.9 99.1-220.9 220.8S390.2 732.8 512 732.8s220.9-99 220.9-220.8S633.8 291.1 512 291.1zM675 512c0 89.9-73.1 163-163 163s-163-73.1-163-163 73.1-163 163-163 163 73.1 163 163z" p-id="9427" fill="#ffffff"></path></svg>