<?xml version="1.0" standalone="no"?><!DOCTYPE svg PUBLIC "-//W3C//DTD SVG 1.1//EN" "http://www.w3.org/Graphics/SVG/1.1/DTD/svg11.dtd"><svg t="1727358205685" class="icon" viewBox="0 0 1024 1024" version="1.1" xmlns="http://www.w3.org/2000/svg" p-id="2119" xmlns:xlink="http://www.w3.org/1999/xlink" width="200" height="200"><path d="M64 832V128a64 64 0 0 1 64-64h768a64 64 0 0 1 64 64v704a64 64 0 0 1-64 64H128a64 64 0 0 1-64-64z m64-192v192h768v-192H128z m0-64h768V384H128v192z m0-256h768V128H128v192z m96-128h128a32 32 0 0 1 0 64h-128a32 32 0 0 1 0-64z m0 256h128a32 32 0 0 1 0 64h-128a32 32 0 0 1 0-64z m0 256h128a32 32 0 1 1 0 64h-128a32 32 0 1 1 0-64z" fill="#ffffff" p-id="2120" data-spm-anchor-id="a313x.manage_type_myprojects.0.i16.7d2c3a815A83n5" class="selected"></path></svg>