<?xml version="1.0" standalone="no"?><!DOCTYPE svg PUBLIC "-//W3C//DTD SVG 1.1//EN" "http://www.w3.org/Graphics/SVG/1.1/DTD/svg11.dtd"><svg t="1770564973359" class="icon" viewBox="0 0 1024 1024" version="1.1" xmlns="http://www.w3.org/2000/svg" p-id="11093" xmlns:xlink="http://www.w3.org/1999/xlink" width="200" height="200"><path d="M495.7 435.3v164.9s-98.3-1.8-105.3 21.1l250.9 3.5s-8.8-22.8-110.6-24.6V437s103.5-5.3 108.8-259.7l-59.6 0.4-3.5 38.2 22.8 1.8-7.5 41.3 24.1 2.6-0.9 75.4-5.3-57.9-29.9-14v-39.5l-19.3-7.9 0.5-40.3H388.7s3.5 226.4 107 257.9z" p-id="11094"></path><path d="M824.1 64H180.9v896H843.2V64h-19.1z m-19.2 38.1v587.7H219.1V102.1h585.8zM219.1 921.9V728h585.8v193.9H219.1z" p-id="11095"></path><path d="M357 806.7c8.6 12.2 15.7 26.8 21.2 43.7 4.4-3.1 9.1-6.1 14-9-6.9-14.7-14.4-28.8-22.4-42.3-3.8 2.9-8.1 5.4-12.8 7.6zM473.5 805.3c-4.4-10.6-9.5-21.1-15.3-31.5-0.3 0-0.9 0-1.7 0.4-6 2.8-10.1 4.9-12 6.1 6.6 10.4 11.6 21 14.9 32 1.1-0.6 5.8-3 14.1-7zM328.6 804.8l-15.7-6.1c-3.1 17.2-8.9 33.1-17.4 47.5 5.1 1.8 9.6 3.9 13.2 6.1 4.1-8.4 10.4-23.5 19.1-45.1-0.3 0.6 0-0.2 0.8-2.4zM418.5 806.7c-1.7 16.3-5.1 32.1-10.4 47.5 0 0.3 4.4 1.4 13.3 3.4 0.9 0.2 1.4 0.4 1.7 0.4 3.9-15 7.3-31.3 10.4-48.9 0 0-2.5-0.4-7.5-1.4-4.8-0.6-7.2-1-7.5-1zM343.9 771.9h-7.5v84.6c1.9 3.7-2.3 5.3-12.8 4.8 2.8 5 4.6 10.3 5.4 16 16 0.8 23.4-3 22-11.8v-86.1c0-0.9 0.3-2.1 0.8-3.3 0.3-1.3 0.3-2 0-2.4-0.3-1.5-2.9-2.2-7.9-1.8zM472.2 846.2c-0.9 10.6-2.9 15.8-6.2 15.5h-12c-1.9-0.3-3.1-1.4-3.3-3.3v-42.3c0-3.2 0.3-6 0.8-8.4 1.1-3.2 0.8-4.6-0.8-4.2-2.7-0.4-5.8-0.4-9.1-0.4h-4.8V865h-0.2c-0.8 7.6 3.1 11 11.6 10.4h21.1c12.4 1.9 18.4-6.2 17.8-24.5-4.1-1-9.1-2.5-14.9-4.7zM593.6 841h16.9l0.1-12.2h-44.3V841h14v21.2h-20.7v12.2h55.1v-12.2h-21.1zM709.3 850.8c4.9-10.7 7.8-25.4 8.7-44.2h9.5v-13.2h-28.2c3.3-9.7 5.6-16 7-18.8 0.3-0.6-2-2-7-3.8-5-1.6-7.9-2-8.7-1.4-1.9 17.3-5.8 31.3-11.6 41.9h-20v-9.4h23.2v-12.2h-12.8c-1.7-10.3-2.7-16.6-3.1-18.8-1.1-0.4-3-0.2-5.8 0.4-0.8 0.4-1.9 0.6-3.3 1-4.4 1-6.6 1.8-6.6 2.4 1.9 4.7 3.2 9.7 4.1 15.1h-22.3V802H646c0.7 33.5-4.6 55.7-16.2 66.3 4.2 1.8 7.9 4.6 11.2 8.4 11.1-13.1 16.9-30.6 17.4-52.2h6.6c0 1.8-0.1 5.1-0.4 9.8-0.3 8.8-0.5 15.3-0.8 19.3 0.5 6.2-2.7 8.6-9.9 7 1.6 4.4 2.9 8.9 3.7 13.6 9.1-0.3 14.7-1.9 16.6-4.7 3.6 2.2 6.6 5.2 9.1 9 7.5-5.6 13.3-10.6 17.4-15 0.2 0.4 0.7 0.6 1.2 1 6.8 6.5 12.1 11.3 15.7 14.1 2.5-3.5 6.2-7.8 11.2-13.2-9.7-4.7-16.2-9.6-19.5-14.6z m-33.2 13.3c1-13.2 1.7-25.8 2-37.7l4.1 5.2 2.9-3.3c2.4 9.7 4.8 17.1 7 22.1-3.8 5.4-9.2 9.8-16 13.7z m23.6-27.3c-1.4-4.7-3.1-13.9-5-27.3l1.2-2.8h8.4c-0.6 14.1-2.1 24.1-4.6 30.1zM597.4 800.5c5-7.6 8.5-15.5 10.7-24h-43v12.7h22.7c-5.5 11.3-14.9 19.9-28.2 25.9 3.3 3.2 6.8 6.9 10.4 11.2 6.9-4.7 13.3-9.7 19.1-15 5 3.8 11.2 9 18.6 15.5l3.3-3.3c3.6-4 6.1-6.8 7.5-8-1.9-1.6-5.8-4.4-11.6-8.4-4.7-3.2-7.9-5.4-9.5-6.6zM473.9 813.7c7.2 9.2 13.1 22.7 17.8 40.5 0.2 0 2.2-1 5.7-2.8 4.1-2.2 7-3.6 8.7-4.2-6.1-17-12.1-30.9-18.2-41.9-3.3 1.8-7.9 4.6-14 8.4z" p-id="11096"></path><path d="M562.1 840c-2.7 0.3-5.7 0.8-8.7 1.4V831h9.1v-11.8h-9.1v-3.8c0-1.9 0.3-3.9 0.8-6.1 0.2-0.8 0.4-1.5 0.4-1.8 0.3-0.2-1.7-0.4-5.8-0.4h-7.9v12.2h-5.4c0.6-1.8 2.1-6.4 4.6-13.6 1.4-4.4 2.2-7 2.5-7.6h18.6v-12.2h-14.9c0.8-3.4 1.9-7 3.3-10.8 1.1-1.9 1.2-3 0.4-3.3-4.4-1.2-8.9-2.2-13.6-2.8-0.2 1.5-0.7 3.6-1.2 6.1-0.9 4.8-1.6 8.2-2.1 10.4h-11.6l0.1 12.8h9.1c-3 11.9-5.9 18.9-8.7 20.7h-0.4c-0.9 0.6-0.2 5.2 2 13.6h2.1c6.3-1 11.4-1.4 15.3-1.4V843c-2.5 0.6-7.3 1.2-14.5 1.8-4.4 0.7-6.6 1-6.6 1 0.6 1.8 1.4 5.1 2.5 9.8 0.5 2.8 0.9 4.6 1.2 5.6 1.9-0.7 4.8-1.5 8.7-2.4 3.9-0.8 6.6-1.5 8.3-1.8v21.6h12.8v-24c0.9-0.3 2.5-0.8 5-1.4 2.4-0.4 3.8-0.6 4.1-1l-0.4-12.2z" p-id="11097"></path></svg>