<?xml version="1.0" standalone="no"?><!DOCTYPE svg PUBLIC "-//W3C//DTD SVG 1.1//EN" "http://www.w3.org/Graphics/SVG/1.1/DTD/svg11.dtd"><svg t="1770564828075" class="icon" viewBox="0 0 1024 1024" version="1.1" xmlns="http://www.w3.org/2000/svg" p-id="7737" xmlns:xlink="http://www.w3.org/1999/xlink" width="200" height="200"><path d="M401.181307 291.949937c-1.763693-2.116431-3.057067-2.939488-4.232863-2.46917a8.348146 8.348146 0 0 0-0.823056 3.644965 23.515903 23.515903 0 0 1-9.288782 21.164313 15.755655 15.755655 0 0 0-5.761396 23.515903 15.402917 15.402917 0 0 0 20.693994 1.998852 22.104949 22.104949 0 0 0 8.465725-18.812723 47.031806 47.031806 0 0 0-9.053622-28.571822M553.564359 252.090481c-1.410954-2.116431-2.586749-3.057067-3.880124-2.586749s-0.940636 1.293375-0.823057 3.409806c0 9.288782-4.350442 13.874383-11.757951 20.576415a18.930302 18.930302 0 0 0-7.172351 11.757951 14.227121 14.227121 0 0 0 19.988518 14.344701 20.341256 20.341256 0 0 0 10.699736-17.401768 49.618556 49.618556 0 0 0-7.054771-29.865197M614.823286 167.43323c-1.293375-2.234011-2.586749-3.057067-3.880124-2.704329a9.288782 9.288782 0 0 0-1.058215 3.644965 31.158572 31.158572 0 0 1-11.170054 19.753359 33.627741 33.627741 0 0 0-7.28993 6.466873 11.757952 11.757952 0 0 0 0 14.46228 13.051326 13.051326 0 0 0 20.341256 5.173499 21.634631 21.634631 0 0 0 10.111838-18.107245 47.031806 47.031806 0 0 0-6.702032-29.15972M681.96119 237.040303c-1.528534-2.234011-2.704329-3.057067-3.880124-2.821908a7.642669 7.642669 0 0 0-1.175796 3.762544A30.335515 30.335515 0 0 1 665.500057 258.674934a31.62889 31.62889 0 0 0-7.17235 6.584453 11.757952 11.757952 0 0 0 0 14.344701 12.933747 12.933747 0 0 0 20.223677 5.291078 22.340108 22.340108 0 0 0 10.111838-18.107245 47.031806 47.031806 0 0 0-6.702032-29.747618M752.508899 320.639339c-1.293375-2.35159-2.586749-3.057067-3.880124-2.939488a8.230566 8.230566 0 0 0-1.058216 3.762544 30.570674 30.570674 0 0 1-11.170054 20.106097 40.564933 40.564933 0 0 0-7.28993 6.584453 11.757952 11.757952 0 0 0 0 14.462281 13.051326 13.051326 0 0 0 20.341256 5.291078 21.987369 21.987369 0 0 0 9.994259-18.107246 45.503272 45.503272 0 0 0-6.937191-29.159719M629.873464 322.75577c-1.410954-2.234011-2.586749-3.174647-3.880124-2.821908a11.757952 11.757952 0 0 0-1.175795 3.644965 30.100356 30.100356 0 0 1-11.052474 20.223676 31.62889 31.62889 0 0 0-7.172351 6.584453 11.757952 11.757952 0 0 0-0.587897 14.109542 13.168906 13.168906 0 0 0 20.458835 5.173499 21.987369 21.987369 0 0 0 10.111839-17.989666 47.031806 47.031806 0 0 0-6.702033-29.2773" fill="#000000" p-id="7738"></path><path d="M349.916638 823.879665h4.350442a151.442416 151.442416 0 0 0 13.051326 62.081984 67.373062 67.373062 0 0 0 64.315995 40.800092 78.895855 78.895855 0 0 0 43.622-14.462281 43.857159 43.857159 0 0 0 21.634631-33.8629V341.686072h4.468022v536.750488c0 29.865197-39.036399 52.440464-69.724653 52.793202-72.78172 0-81.600184-79.366173-81.717763-107.350097" fill="#000000" p-id="7739"></path><path d="M504.298542 372.374325c-211.643128-9.406361-301.238719 152.85337-332.279711 204.823516 11.757952-6.584453 51.264669-22.340108 69.136755-22.340108a88.654955 88.654955 0 0 1 62.081984 23.515903 78.072798 78.072798 0 0 1 53.968998-21.281892c25.044437 0 46.326329 17.872086 59.377655 25.632335a152.147893 152.147893 0 0 1 82.305661-30.805834 152.147893 152.147893 0 0 1 82.305661 30.805834c13.051326-7.760248 34.215639-25.632334 58.789758-25.632335A78.543116 78.543116 0 0 1 693.719141 577.903318a88.302216 88.302216 0 0 1 62.081984-23.515903c17.754507 0 56.908485 15.755655 69.136755 22.340108-31.276151-51.734987-120.754162-213.759559-332.514869-204.353198z" fill="#000000" p-id="7740"></path></svg>