<?xml version="1.0" standalone="no"?><!DOCTYPE svg PUBLIC "-//W3C//DTD SVG 1.1//EN" "http://www.w3.org/Graphics/SVG/1.1/DTD/svg11.dtd"><svg t="1770564944942" class="icon" viewBox="0 0 1024 1024" version="1.1" xmlns="http://www.w3.org/2000/svg" p-id="10031" xmlns:xlink="http://www.w3.org/1999/xlink" width="200" height="200"><path d="M814.890311 314.382053V26.95128h-415.189218l-49.031434 98.062868c-2.687124 5.374248-0.503121 11.903387 4.859692 14.590511l84.570076 42.285038c6.643485 3.316025 8.072806 12.166382 2.824339 17.414849L348.988778 293.239534a10.887997 10.887997 0 0 1-7.695466 3.190245h-23.132134c-9.68508 0-14.544772-11.708999-7.695465-18.569741l78.555492-78.555492c5.248467-5.248467 3.807712-14.098824-2.824338-17.414849l-84.570076-42.285038c-5.374248-2.687124-7.546816-9.216263-4.859692-14.590511l49.031434-98.062868H216.050473v287.442208c0 151.130705 111.978739 276.08768 257.49507 296.475517v279.049233c-128.913336 4.024968-227.559367 26.333813-227.559367 53.239356 0 29.764184 120.646143 53.891126 269.478499 53.891126s269.478499-24.126942 269.478498-53.891126c0-26.916977-98.634596-49.214387-227.559367-53.239356V610.869005c145.516331-20.387837 257.49507-145.344813 257.49507-296.475517z" p-id="10032"></path></svg>